<svg width="20" height="17" viewBox="0 0 20 17" fill="none" xmlns="http://www.w3.org/2000/svg">
<path id="vector" fill-rule="evenodd" clip-rule="evenodd" d="M4.2 3L5.74 0.43C5.89 0.19 6.23 0 6.49 0H13.51C13.78 0 14.11 0.19 14.26 0.43L15.8 3H18C19.1 3 20 3.89 20 5V15C20 16.11 19.11 17 18 17H2C0.9 17 0 16.11 0 15V5C0 3.9 0.89 3 2 3H4.2ZM9.0002 2.70001C8.55837 2.70001 8.2002 3.05818 8.2002 3.50001C8.2002 3.94184 8.55837 4.30001 9.0002 4.30001H11.0002C11.442 4.30001 11.8002 3.94184 11.8002 3.50001C11.8002 3.05818 11.442 2.70001 11.0002 2.70001H9.0002ZM7.3002 10C7.3002 8.50884 8.50903 7.30001 10.0002 7.30001C11.4914 7.30001 12.7002 8.50884 12.7002 10C12.7002 11.4912 11.4914 12.7 10.0002 12.7C8.50903 12.7 7.3002 11.4912 7.3002 10ZM10.0002 5.70001C7.62537 5.70001 5.7002 7.62519 5.7002 10C5.7002 12.3748 7.62537 14.3 10.0002 14.3C12.375 14.3 14.3002 12.3748 14.3002 10C14.3002 7.62519 12.375 5.70001 10.0002 5.70001Z" fill="#868B94"/>
</svg>
