<svg preserveAspectRatio="none" overflow="visible" style="display: block;" width="18.5996" height="18.5" viewBox="0 0 18.5996 18.5" fill="none" xmlns="http://www.w3.org/2000/svg">
<path id="vector" d="M2 15.5C2 16.0523 2.44775 16.5 3 16.5H4.84961V18.5H3C1.34318 18.5 0 17.1568 0 15.5V14.0166H2V15.5ZM18.5 15.5C18.5 17.1569 17.1569 18.5 15.5 18.5H14.0166V16.5H15.5C16.0523 16.5 16.5 16.0523 16.5 15.5V14.0166H18.5V15.5ZM18.5996 10.5332H0.266602V8.7002H18.5996V10.5332ZM4.84961 2H3C2.44777 2.00004 2.00004 2.44777 2 3V4.84961H0V3C3.51987e-05 1.3432 1.3432 3.51991e-05 3 0H4.84961V2ZM15.5 0C17.1568 0 18.5 1.34318 18.5 3V4.84961H16.5V3C16.5 2.44775 16.0523 2 15.5 2H14.0166V0H15.5Z" fill="#212124"/>
</svg>
